<?xml version="1.0" encoding="UTF-8"?>
<svg id="_レイヤー_2" data-name="レイヤー 2" xmlns="http://www.w3.org/2000/svg" viewBox="0 0 29.03 27.8">
  <defs>
    <style>
      .cls-1 {
        fill: none;
        stroke: #b7b7b7;
        stroke-miterlimit: 10;
      }
    </style>
  </defs>
  <g id="_レイヤー_3" data-name="レイヤー 3">
    <path class="cls-1" d="m15.78,1.29l3.24,6.56c.21.42.6.71,1.06.77l7.24,1.05c1.16.17,1.62,1.59.78,2.41l-5.24,5.11c-.33.32-.48.79-.41,1.25l1.24,7.21c.2,1.15-1.01,2.03-2.05,1.49l-6.47-3.4c-.41-.22-.9-.22-1.31,0l-6.47,3.4c-1.04.54-2.25-.34-2.05-1.49l1.24-7.21c.08-.46-.07-.93-.41-1.25L.93,12.08c-.84-.82-.38-2.24.78-2.41l7.24-1.05c.46-.07.86-.36,1.06-.77l3.24-6.56c.52-1.05,2.01-1.05,2.53,0Z"/>
  </g>
</svg>